<?xml version="1.0" standalone="no"?>
<!DOCTYPE svg PUBLIC "-//W3C//DTD SVG 20010904//EN"
 "http://www.w3.org/TR/2001/REC-SVG-20010904/DTD/svg10.dtd">
<svg version="1.0" xmlns="http://www.w3.org/2000/svg"
 width="2040.000000pt" height="980.000000pt" viewBox="0 0 2040.000000 980.000000"
 preserveAspectRatio="xMidYMid meet">

<g transform="translate(0.000000,980.000000) scale(0.100000,-0.100000)"
fill="#000000" stroke="none">
<path d="M1097 9382 l-347 -348 0 -49 0 -49 347 -348 348 -348 362 362 c200
200 363 356 363 348 0 -8 156 -171 347 -362 l348 -348 372 372 373 373 -372
372 -373 373 -343 -343 c-188 -188 -345 -350 -348 -361 -5 -15 -76 51 -368
343 l-361 361 -348 -348z"/>
<path d="M18510 9355 l-345 -345 0 -50 0 -50 348 -347 347 -348 372 373 373
372 -370 370 c-203 203 -372 370 -375 370 -3 0 -160 -155 -350 -345z"/>
<path d="M10388 8735 c-332 -308 -407 -381 -412 -408 -13 -64 -18 -2285 -7
-3062 18 -1241 33 -1620 71 -1800 105 -504 452 -847 990 -979 109 -27 482 -87
655 -106 145 -16 394 -13 495 4 239 43 438 157 593 341 124 147 244 355 317
548 21 56 51 129 66 162 l28 60 7 -90 c34 -445 253 -721 689 -869 110 -37 669
-201 785 -230 161 -40 365 -78 430 -79 46 -1 73 5 116 25 138 64 184 141 289
488 62 202 120 370 129 370 3 0 29 -35 56 -78 126 -195 296 -375 454 -480 215
-144 401 -182 893 -182 330 0 499 16 701 66 463 115 724 379 1080 1089 203
407 308 751 376 1236 35 247 51 506 61 944 13 573 13 595 -2 595 -7 0 -195
-66 -417 -147 l-404 -147 6 -609 c5 -495 4 -632 -8 -731 -38 -318 -137 -520
-291 -588 -137 -60 -767 -87 -1009 -44 -132 24 -297 72 -381 110 -185 86 -387
362 -823 1123 -330 578 -577 963 -735 1146 -213 248 -515 356 -806 287 -239
-57 -515 -263 -723 -538 -205 -273 -336 -568 -468 -1052 -70 -260 -111 -376
-184 -525 -104 -211 -219 -336 -388 -421 -149 -76 -393 -108 -817 -108 -279
-1 -299 0 -374 22 -228 66 -390 209 -500 443 -78 164 -117 338 -137 598 -19
242 -4 1578 36 3324 9 357 13 653 10 658 -4 5 -14 9 -24 9 -10 0 -200 -169
-423 -375z m4021 -3395 c78 -42 163 -124 229 -222 125 -186 310 -543 465 -898
120 -277 118 -270 104 -270 -26 0 -935 174 -1123 215 -110 24 -225 53 -257 65
-170 64 -252 253 -203 472 46 204 224 474 394 595 92 66 148 84 247 80 68 -3
89 -8 144 -37z"/>
<path d="M7000 8374 c-30 -14 -199 -86 -375 -161 -616 -260 -1106 -494 -1193
-569 -49 -42 -71 -92 -187 -420 -104 -293 -111 -319 -95 -329 10 -6 304 120
1125 482 411 182 456 205 519 273 63 67 96 142 205 459 67 197 87 268 79 278
-13 16 -13 17 -78 -13z"/>
<path d="M14755 8239 c-203 -87 -453 -195 -555 -240 -224 -99 -618 -297 -681
-344 -61 -44 -77 -77 -199 -423 -92 -262 -114 -342 -91 -342 8 0 707 305 1226
535 379 167 422 197 488 336 31 67 217 594 217 617 0 8 -27 25 -33 21 -1 -1
-168 -73 -372 -160z"/>
<path d="M19219 8053 c-186 -186 -342 -349 -349 -362 -12 -23 -23 -13 -371
335 l-359 359 -345 -345 c-366 -366 -372 -374 -346 -438 7 -15 165 -181 351
-367 l340 -340 358 358 c196 196 360 357 365 357 4 0 7 -6 7 -13 0 -6 155
-167 345 -357 l345 -345 373 373 372 372 -375 375 -375 375 -336 -337z"/>
<path d="M8237 8032 c-314 -315 -347 -351 -347 -380 0 -18 6 -45 14 -60 8 -15
166 -178 350 -362 l336 -335 372 373 373 372 -370 370 c-203 203 -372 370
-375 370 -3 0 -162 -157 -353 -348z"/>
<path d="M2955 8069 c-93 -55 -283 -163 -421 -241 l-251 -141 -7 -120 c-3 -66
-6 -150 -6 -185 0 -87 -24 -135 -105 -210 -92 -86 -205 -153 -615 -362 -201
-103 -415 -217 -476 -253 -662 -394 -974 -953 -974 -1741 0 -196 16 -325 66
-514 84 -325 224 -582 413 -765 101 -97 171 -142 307 -196 160 -64 275 -83
504 -84 170 -1 205 2 272 20 188 53 355 149 471 272 75 80 118 149 147 236 29
88 96 579 125 920 9 99 18 182 21 184 9 9 24 -23 24 -51 0 -40 38 -333 66
-508 182 -1154 531 -1754 1106 -1905 156 -41 276 -50 628 -49 318 0 327 1 421
26 196 53 339 126 491 248 199 161 392 399 598 740 72 119 81 130 89 108 195
-503 429 -805 749 -967 208 -105 502 -161 847 -161 386 0 689 67 891 199 269
174 516 519 717 996 200 476 330 1163 387 2040 12 194 25 705 18 705 -3 0
-189 -67 -414 -150 -224 -82 -409 -150 -410 -150 -2 0 -2 -219 -1 -487 1 -413
-2 -507 -16 -613 -55 -392 -182 -605 -445 -743 -300 -157 -656 -193 -946 -96
-203 69 -461 246 -575 396 -207 273 -252 628 -175 1376 9 87 15 160 13 162 -6
5 -809 -291 -820 -302 -7 -7 -21 -92 -80 -478 -58 -384 -149 -596 -333 -781
-136 -136 -307 -238 -551 -329 -153 -57 -265 -77 -430 -77 -161 0 -286 19
-420 63 -110 37 -176 73 -280 154 -243 190 -342 362 -374 650 -34 298 -79
2355 -65 2963 4 179 3 302 -2 301 -5 0 -85 -45 -179 -100z m-835 -2768 c-16
-85 -50 -135 -117 -168 l-58 -28 -253 -3 c-352 -5 -695 12 -790 38 -142 40
-242 107 -242 162 0 73 225 228 645 444 226 116 450 219 670 309 l150 62 3
-381 c1 -224 -2 -402 -8 -435z"/>
<path d="M9125 1394 c-822 -350 -1230 -549 -1290 -628 -33 -43 -58 -107 -166
-415 -91 -258 -104 -318 -71 -308 16 5 1004 438 1342 588 268 119 322 169 396
359 67 176 185 533 180 547 -3 7 -11 13 -18 12 -7 -1 -175 -70 -373 -155z"/>
<path d="M4747 1142 l-347 -348 0 -44 0 -44 350 -351 350 -350 359 359 359
359 15 -29 c9 -16 164 -177 346 -359 l331 -330 375 375 375 375 -367 367
c-203 203 -373 368 -378 368 -16 0 -695 -684 -695 -700 0 -8 -161 146 -358
343 -196 196 -359 357 -362 357 -3 0 -162 -157 -353 -348z"/>
</g>
</svg>
